<?xml version="1.0" encoding="UTF-8"?>
<svg version="1.1" xmlns="http://www.w3.org/2000/svg" width="192" height="192">
<path d="M0 0 C1.5631897 0.00785522 1.5631897 0.00785522 3.15795898 0.01586914 C4.28266602 0.0190918 5.40737305 0.02231445 6.56616211 0.02563477 C7.75016602 0.03401367 8.93416992 0.04239258 10.15405273 0.05102539 C11.34192383 0.05553711 12.52979492 0.06004883 13.75366211 0.06469727 C16.69967499 0.07652864 19.64558954 0.09301252 22.59155273 0.11352539 C22.59155273 3.44685872 22.59155273 6.78019206 22.59155273 10.11352539 C23.25155273 10.11352539 23.91155273 10.11352539 24.59155273 10.11352539 C25.6920373 15.2165131 25.53406442 19.83434388 25.15405273 24.98852539 C25.1018457 25.77227539 25.04963867 26.55602539 24.99584961 27.36352539 C24.86726422 29.28061659 24.73026657 31.19714042 24.59155273 33.11352539 C23.60155273 33.60852539 23.60155273 33.60852539 22.59155273 34.11352539 C23.72592773 34.17540039 24.86030273 34.23727539 26.02905273 34.30102539 C32.44772754 35.12043069 38.16438233 38.20022522 42.52905273 42.98852539 C47.02565507 49.80155923 46.91050113 56.59465084 46.92749023 64.52368164 C46.93747543 66.152183 46.93747543 66.152183 46.94766235 67.81358337 C46.95775384 70.10047722 46.96248046 72.38740031 46.9621582 74.67431641 C46.96654293 78.1682161 47.00293293 81.66086349 47.04077148 85.15454102 C47.04663807 87.38175026 47.05060852 89.60896547 47.05249023 91.83618164 C47.06686127 92.87694351 47.0812323 93.91770538 47.09603882 94.99000549 C47.05886779 100.89791694 46.62616885 104.47339745 42.59155273 109.11352539 C42.17101624 109.65106949 41.75047974 110.18861359 41.31719971 110.7424469 C38.83097952 112.71782371 36.97193571 112.50805283 33.82250977 112.53344727 C32.6376297 112.54935913 31.45274963 112.565271 30.23196411 112.58166504 C28.31007767 112.58196716 28.31007767 112.58196716 26.34936523 112.58227539 C25.03370575 112.58988892 23.71804626 112.59750244 22.36251831 112.60534668 C19.57663453 112.61879484 16.79103411 112.62035947 14.00512695 112.61450195 C10.44149448 112.60861199 6.87922737 112.63916323 3.31585884 112.67961884 C-0.08968211 112.71175051 -3.49494271 112.70737952 -6.90063477 112.70727539 C-8.81644852 112.73186829 -8.81644852 112.73186829 -10.77096558 112.75695801 C-19.59985869 112.68798753 -19.59985869 112.68798753 -23.62768555 109.82641602 C-26.28745961 105.77439937 -27.65661563 103.11215439 -27.68310547 98.21240234 C-27.69263748 97.24071609 -27.70216949 96.26902985 -27.71199036 95.26789856 C-27.71107895 94.22308823 -27.71016754 93.17827789 -27.70922852 92.10180664 C-27.71351364 91.01900925 -27.71779877 89.93621185 -27.72221375 88.82060242 C-27.72795624 86.52835793 -27.72845791 84.23609523 -27.72412109 81.94384766 C-27.72097473 78.45646533 -27.74437482 74.96994264 -27.76977539 71.48266602 C-27.77204991 69.25154729 -27.77275117 67.02042629 -27.77172852 64.78930664 C-27.78093826 63.75461746 -27.79014801 62.71992828 -27.79963684 61.65388489 C-27.7512707 53.98642507 -27.16217766 46.50023859 -21.47094727 40.86352539 C-16.70135212 37.18353603 -11.01020376 35.19233815 -5.40844727 33.11352539 C-5.46174194 32.17500732 -5.46174194 32.17500732 -5.51611328 31.2175293 C-5.67340793 28.39147744 -5.82227975 25.56504365 -5.97094727 22.73852539 C-6.02702148 21.75368164 -6.0830957 20.76883789 -6.14086914 19.75415039 C-6.18920898 18.81313477 -6.23754883 17.87211914 -6.28735352 16.90258789 C-6.33448486 16.03327637 -6.38161621 15.16396484 -6.43017578 14.26831055 C-6.40844727 12.11352539 -6.40844727 12.11352539 -5.40844727 10.11352539 C-4.74844727 10.11352539 -4.08844727 10.11352539 -3.40844727 10.11352539 C-3.42004883 9.47543945 -3.43165039 8.83735352 -3.44360352 8.17993164 C-3.45262695 7.35364258 -3.46165039 6.52735352 -3.47094727 5.67602539 C-3.48254883 4.85231445 -3.49415039 4.02860352 -3.50610352 3.17993164 C-3.36367472 0.16613837 -3.02118634 0.14240767 0 0 Z M0.59155273 1.11352539 C0.59155273 1.44352539 0.59155273 1.77352539 0.59155273 2.11352539 C6.20155273 2.11352539 11.81155273 2.11352539 17.59155273 2.11352539 C17.59155273 1.78352539 17.59155273 1.45352539 17.59155273 1.11352539 C11.98155273 1.11352539 6.37155273 1.11352539 0.59155273 1.11352539 Z M-2.40844727 8.11352539 C-1.40844727 10.11352539 -1.40844727 10.11352539 -1.40844727 10.11352539 Z M20.59155273 8.11352539 C21.59155273 10.11352539 21.59155273 10.11352539 21.59155273 10.11352539 Z M-4.40844727 17.11352539 C-4.40844727 22.39352539 -4.40844727 27.67352539 -4.40844727 33.11352539 C-4.07844727 33.11352539 -3.74844727 33.11352539 -3.40844727 33.11352539 C-3.40844727 27.83352539 -3.40844727 22.55352539 -3.40844727 17.11352539 C-3.73844727 17.11352539 -4.06844727 17.11352539 -4.40844727 17.11352539 Z M-19.40844727 110.11352539 C-19.40844727 110.44352539 -19.40844727 110.77352539 -19.40844727 111.11352539 C-0.26844727 111.11352539 18.87155273 111.11352539 38.59155273 111.11352539 C38.59155273 110.78352539 38.59155273 110.45352539 38.59155273 110.11352539 C19.45155273 110.11352539 0.31155273 110.11352539 -19.40844727 110.11352539 Z " fill="#FAE9D4" transform="translate(86.408447265625,39.886474609375)"/>
<path d="M0 0 C1.5631897 0.00785522 1.5631897 0.00785522 3.15795898 0.01586914 C4.28266602 0.0190918 5.40737305 0.02231445 6.56616211 0.02563477 C7.75016602 0.03401367 8.93416992 0.04239258 10.15405273 0.05102539 C11.34192383 0.05553711 12.52979492 0.06004883 13.75366211 0.06469727 C16.69967499 0.07652864 19.64558954 0.09301252 22.59155273 0.11352539 C22.59155273 3.44685872 22.59155273 6.78019206 22.59155273 10.11352539 C23.25155273 10.11352539 23.91155273 10.11352539 24.59155273 10.11352539 C25.6920373 15.2165131 25.53406442 19.83434388 25.15405273 24.98852539 C25.1018457 25.77227539 25.04963867 26.55602539 24.99584961 27.36352539 C24.86726422 29.28061659 24.73026657 31.19714042 24.59155273 33.11352539 C23.60155273 33.60852539 23.60155273 33.60852539 22.59155273 34.11352539 C23.72592773 34.17540039 24.86030273 34.23727539 26.02905273 34.30102539 C32.44772754 35.12043069 38.16438233 38.20022522 42.52905273 42.98852539 C47.02565507 49.80155923 46.91050113 56.59465084 46.92749023 64.52368164 C46.93747543 66.152183 46.93747543 66.152183 46.94766235 67.81358337 C46.95775384 70.10047722 46.96248046 72.38740031 46.9621582 74.67431641 C46.96654293 78.1682161 47.00293293 81.66086349 47.04077148 85.15454102 C47.04663807 87.38175026 47.05060852 89.60896547 47.05249023 91.83618164 C47.06686127 92.87694351 47.0812323 93.91770538 47.09603882 94.99000549 C47.05886779 100.89791694 46.62616885 104.47339745 42.59155273 109.11352539 C42.17101624 109.65106949 41.75047974 110.18861359 41.31719971 110.7424469 C38.83097952 112.71782371 36.97193571 112.50805283 33.82250977 112.53344727 C32.6376297 112.54935913 31.45274963 112.565271 30.23196411 112.58166504 C28.31007767 112.58196716 28.31007767 112.58196716 26.34936523 112.58227539 C25.03370575 112.58988892 23.71804626 112.59750244 22.36251831 112.60534668 C19.57663453 112.61879484 16.79103411 112.62035947 14.00512695 112.61450195 C10.44149448 112.60861199 6.87922737 112.63916323 3.31585884 112.67961884 C-0.08968211 112.71175051 -3.49494271 112.70737952 -6.90063477 112.70727539 C-8.81644852 112.73186829 -8.81644852 112.73186829 -10.77096558 112.75695801 C-19.59985869 112.68798753 -19.59985869 112.68798753 -23.62768555 109.82641602 C-26.28745961 105.77439937 -27.65661563 103.11215439 -27.68310547 98.21240234 C-27.69263748 97.24071609 -27.70216949 96.26902985 -27.71199036 95.26789856 C-27.71107895 94.22308823 -27.71016754 93.17827789 -27.70922852 92.10180664 C-27.71351364 91.01900925 -27.71779877 89.93621185 -27.72221375 88.82060242 C-27.72795624 86.52835793 -27.72845791 84.23609523 -27.72412109 81.94384766 C-27.72097473 78.45646533 -27.74437482 74.96994264 -27.76977539 71.48266602 C-27.77204991 69.25154729 -27.77275117 67.02042629 -27.77172852 64.78930664 C-27.78093826 63.75461746 -27.79014801 62.71992828 -27.79963684 61.65388489 C-27.7512707 53.98642507 -27.16217766 46.50023859 -21.47094727 40.86352539 C-16.70135212 37.18353603 -11.01020376 35.19233815 -5.40844727 33.11352539 C-5.46174194 32.17500732 -5.46174194 32.17500732 -5.51611328 31.2175293 C-5.67340793 28.39147744 -5.82227975 25.56504365 -5.97094727 22.73852539 C-6.02702148 21.75368164 -6.0830957 20.76883789 -6.14086914 19.75415039 C-6.18920898 18.81313477 -6.23754883 17.87211914 -6.28735352 16.90258789 C-6.33448486 16.03327637 -6.38161621 15.16396484 -6.43017578 14.26831055 C-6.40844727 12.11352539 -6.40844727 12.11352539 -5.40844727 10.11352539 C-4.74844727 10.11352539 -4.08844727 10.11352539 -3.40844727 10.11352539 C-3.42004883 9.47543945 -3.43165039 8.83735352 -3.44360352 8.17993164 C-3.45262695 7.35364258 -3.46165039 6.52735352 -3.47094727 5.67602539 C-3.48254883 4.85231445 -3.49415039 4.02860352 -3.50610352 3.17993164 C-3.36367472 0.16613837 -3.02118634 0.14240767 0 0 Z M0.59155273 1.11352539 C0.59155273 1.44352539 0.59155273 1.77352539 0.59155273 2.11352539 C6.20155273 2.11352539 11.81155273 2.11352539 17.59155273 2.11352539 C17.59155273 1.78352539 17.59155273 1.45352539 17.59155273 1.11352539 C11.98155273 1.11352539 6.37155273 1.11352539 0.59155273 1.11352539 Z M-2.40844727 8.11352539 C-1.40844727 10.11352539 -1.40844727 10.11352539 -1.40844727 10.11352539 Z M20.59155273 8.11352539 C21.59155273 10.11352539 21.59155273 10.11352539 21.59155273 10.11352539 Z M-4.40844727 17.11352539 C-4.40844727 22.39352539 -4.40844727 27.67352539 -4.40844727 33.11352539 C-4.07844727 33.11352539 -3.74844727 33.11352539 -3.40844727 33.11352539 C-3.40844727 27.83352539 -3.40844727 22.55352539 -3.40844727 17.11352539 C-3.73844727 17.11352539 -4.06844727 17.11352539 -4.40844727 17.11352539 Z M-5.70532227 46.44555664 C-10.85485895 47.71805776 -16.14213155 47.33639455 -21.40844727 47.11352539 C-23.00962468 50.65674349 -23.66292221 53.43457291 -23.68310547 57.31518555 C-23.69263748 58.32618317 -23.70216949 59.33718079 -23.71199036 60.3788147 C-23.71107895 61.45915985 -23.71016754 62.539505 -23.70922852 63.65258789 C-23.71351364 64.77039642 -23.71779877 65.88820496 -23.72221375 67.03988647 C-23.72794836 69.39841027 -23.72846372 71.75695175 -23.72412109 74.11547852 C-23.7209527 77.73231897 -23.74446116 81.34834802 -23.76977539 84.96508789 C-23.77204754 87.25675352 -23.77275227 89.54842136 -23.77172852 91.84008789 C-23.78093826 92.92448151 -23.79014801 94.00887512 -23.79963684 95.12612915 C-23.79340805 96.13082245 -23.78717926 97.13551575 -23.78076172 98.1706543 C-23.78139114 99.05492096 -23.78202057 99.93918762 -23.78266907 100.85025024 C-23.55901956 103.14308368 -23.55901956 103.14308368 -22.24772644 104.89819336 C-19.64525978 106.61781327 -17.71500796 106.49464684 -14.60766602 106.50170898 C-13.41633057 106.51116547 -12.22499512 106.52062195 -10.99755859 106.53036499 C-9.71002686 106.5242923 -8.42249512 106.5182196 -7.09594727 106.51196289 C-5.76220541 106.51398394 -4.42846463 106.51689565 -3.09472656 106.5206604 C-0.30043001 106.52508235 2.49357872 106.51865729 5.2878418 106.50463867 C8.86929739 106.48754633 12.45007855 106.49738828 16.0315094 106.51535606 C18.78533 106.5261977 21.53899075 106.52274593 24.29281616 106.51497269 C26.25543658 106.51199868 28.21806322 106.52110831 30.18066406 106.53036499 C31.37199951 106.52090851 32.56333496 106.51145203 33.79077148 106.50170898 C34.84095459 106.4993222 35.8911377 106.49693542 36.97314453 106.49447632 C39.58816222 106.3042271 39.58816222 106.3042271 41.43182373 104.89344788 C42.9584495 102.55042159 42.95969361 101.03608629 42.94799805 98.24658203 C42.95099915 97.25868179 42.95400024 96.27078156 42.95709229 95.25294495 C42.94474548 94.18728806 42.93239868 93.12163116 42.91967773 92.02368164 C42.91686798 90.37957558 42.91686798 90.37957558 42.91400146 88.70225525 C42.90727553 86.38301556 42.89335041 84.06378732 42.87280273 81.74462891 C42.84170715 78.19365904 42.8318376 74.64313341 42.82592773 71.09204102 C42.81675524 68.84008248 42.80637868 66.58812846 42.79467773 64.33618164 C42.79042786 63.27254898 42.78617798 62.20891632 42.78179932 61.11305237 C42.77219177 60.12199997 42.76258423 59.13094757 42.75268555 58.10986328 C42.74585754 57.23954971 42.73902954 56.36923615 42.73199463 55.47254944 C42.59818903 53.22499628 42.21773183 51.27061371 41.59155273 49.11352539 C40.58737305 49.08774414 39.58319336 49.06196289 38.54858398 49.03540039 C31.62476082 48.77574638 25.39676723 48.30742684 18.77905273 46.05102539 C9.91962919 43.05413397 3.03538026 43.44270239 -5.70532227 46.44555664 Z M-19.40844727 110.11352539 C-19.40844727 110.44352539 -19.40844727 110.77352539 -19.40844727 111.11352539 C-0.26844727 111.11352539 18.87155273 111.11352539 38.59155273 111.11352539 C38.59155273 110.78352539 38.59155273 110.45352539 38.59155273 110.11352539 C19.45155273 110.11352539 0.31155273 110.11352539 -19.40844727 110.11352539 Z " fill="#E1EBEE" transform="translate(86.408447265625,39.886474609375)"/>
<path d="M0 0 C10.38437759 -0.19969957 18.21432235 0.71812804 27.93676758 3.95458984 C37.85082188 7.17598295 48.75113465 9.14952537 59 6 C59.08107583 7.93681161 59.13922475 9.8745934 59.1875 11.8125 C59.23970703 13.43091797 59.23970703 13.43091797 59.29296875 15.08203125 C59 18 59 18 57.8452301 19.65910339 C55.24382243 21.54950108 53.38176026 21.37422592 50.18334961 21.37231445 C48.98878647 21.37854324 47.79422333 21.38477203 46.5634613 21.39118958 C45.27279251 21.38197983 43.98212372 21.37277008 42.65234375 21.36328125 C41.31620789 21.3627626 39.98007126 21.3632805 38.64393616 21.36479187 C35.84543447 21.36470219 33.04722116 21.35428124 30.2487793 21.33618164 C26.65836737 21.31347234 23.06837596 21.31295468 19.47791195 21.31969929 C16.71985626 21.32303724 13.96189679 21.31641289 11.20385933 21.30657005 C9.23511169 21.30084024 7.26634765 21.30215503 5.29759216 21.30354309 C4.10618118 21.29401108 2.9147702 21.28447906 1.68725586 21.2746582 C0.63485214 21.27005081 -0.41755157 21.26544342 -1.50184631 21.26069641 C-4 21 -4 21 -6 19 C-6.14517744 16.0906442 -6.18630796 13.280054 -6.125 10.375 C-6.11597656 9.57320312 -6.10695312 8.77140625 -6.09765625 7.9453125 C-6.07406223 5.96341477 -6.03819065 3.98167019 -6 2 C-5.34 2 -4.68 2 -4 2 C-4 6.62 -4 11.24 -4 16 C-3.01 15.67 -2.02 15.34 -1 15 C-0.67 10.05 -0.34 5.1 0 0 Z " fill="#D3A476" transform="translate(70,125)"/>
<path d="M0 0 C2.475 -0.04125 4.95 -0.0825 7.5 -0.125 C8.26248047 -0.14320801 9.02496094 -0.16141602 9.81054688 -0.18017578 C16.92792639 -0.23663401 23.06925314 1.63087697 29.73266602 3.95458984 C40.21547829 7.54966946 48.99716617 7.5718334 60 6 C60 10.95 60 15.9 60 21 C49.62077937 26.18961032 37.38682198 22.76876711 26.9375 19.2890625 C26.28716797 19.0720166 25.63683594 18.8549707 24.96679688 18.63134766 C19.14431081 16.76231228 13.62928898 15.72861283 7.5 15.375 C5.355 15.25125 3.21 15.1275 1 15 C1 19.95 1 24.9 1 30 C-0.32 30.33 -1.64 30.66 -3 31 C-3 26.38 -3 21.76 -3 17 C-2.01 16.67 -1.02 16.34 0 16 C0 10.72 0 5.44 0 0 Z " fill="#ECCBA9" transform="translate(69,110)"/>
<path d="M0 0 C6.40980993 1.71816568 12.96411351 1.78742409 19.5703125 1.95703125 C20.74278021 6.05605223 20.64107312 9.71139383 20.5703125 13.95703125 C9.56199304 18.00324391 0.68671555 16.25580609 -9.9921875 12.45703125 C-21.21725374 8.47059572 -30.54153044 8.38705112 -42.4296875 8.95703125 C-42.4296875 19.18703125 -42.4296875 29.41703125 -42.4296875 39.95703125 C-43.0896875 39.95703125 -43.7496875 39.95703125 -44.4296875 39.95703125 C-44.4296875 45.23703125 -44.4296875 50.51703125 -44.4296875 55.95703125 C-44.7596875 55.95703125 -45.0896875 55.95703125 -45.4296875 55.95703125 C-45.48041897 48.78543113 -45.51543437 41.61387735 -45.53955078 34.44213867 C-45.5496051 32.00266795 -45.56325042 29.56320928 -45.58056641 27.1237793 C-45.60483932 23.61634346 -45.61617641 20.10906704 -45.625 16.6015625 C-45.63532257 15.51180618 -45.64564514 14.42204987 -45.65628052 13.29927063 C-45.65650711 11.76824959 -45.65650711 11.76824959 -45.65673828 10.20629883 C-45.6611795 9.31139236 -45.66562073 8.4164859 -45.67019653 7.49446106 C-45.40319013 4.67747749 -44.59429449 2.52287643 -43.4296875 -0.04296875 C-42.60726562 -0.00816406 -41.78484375 0.02664062 -40.9375 0.0625 C-35.43696768 0.19588473 -30.5462349 0.25775641 -25.3046875 -1.54296875 C-16.16758065 -4.61809811 -8.91820372 -3.04078512 0 0 Z " fill="#F8D0B0" transform="translate(108.4296875,87.04296875)"/>
<path d="M0 0 C0.99 1.485 0.99 1.485 2 3 C2.66 2.67 3.32 2.34 4 2 C4.10157378 9.01077881 4.17153861 16.02136725 4.21972656 23.03271484 C4.23981893 25.41690157 4.26709781 27.80103915 4.30175781 30.18505859 C4.35037859 33.61568338 4.37299312 37.04565555 4.390625 40.4765625 C4.41127014 41.53928375 4.43191528 42.602005 4.45318604 43.69692993 C4.45499041 49.67270289 4.10642748 53.31607718 0 58 C-0.42062714 58.53722687 -0.84125427 59.07445374 -1.27462769 59.62796021 C-3.76049016 61.60475223 -5.61908423 61.39452315 -8.76904297 61.41992188 C-10.54636307 61.44378967 -10.54636307 61.44378967 -12.35958862 61.46813965 C-14.28147507 61.46844177 -14.28147507 61.46844177 -16.2421875 61.46875 C-17.55784698 61.47636353 -18.87350647 61.48397705 -20.22903442 61.49182129 C-23.0149182 61.50526945 -25.80051862 61.50683408 -28.58642578 61.50097656 C-32.15005825 61.4950866 -35.71232537 61.52563784 -39.27569389 61.56609344 C-42.68123485 61.59822512 -46.08649544 61.59385412 -49.4921875 61.59375 C-51.40800125 61.6183429 -51.40800125 61.6183429 -53.36251831 61.64343262 C-62.19141143 61.57446214 -62.19141143 61.57446214 -66.21923828 58.71289062 C-68.92830146 54.58578478 -70.25227604 51.95065661 -70.22705078 46.95605469 C-70.22682419 45.45495148 -70.22682419 45.45495148 -70.22659302 43.92352295 C-70.21627045 42.85047913 -70.20594788 41.7774353 -70.1953125 40.671875 C-70.1924826 39.56773254 -70.18965271 38.46359009 -70.18673706 37.32598877 C-70.17554489 33.8005488 -70.15044175 30.27536315 -70.125 26.75 C-70.11496897 24.35937867 -70.10584333 21.96875336 -70.09765625 19.578125 C-70.0756087 13.71866327 -70.04214053 7.85934981 -70 2 C-69.67 2 -69.34 2 -69 2 C-68.67 13.22 -68.34 24.44 -68 36 C-67.34 36 -66.68 36 -66 36 C-65.95101562 37.13179687 -65.90203125 38.26359375 -65.8515625 39.4296875 C-65.77653486 40.91148339 -65.70098703 42.393253 -65.625 43.875 C-65.5940625 44.62136719 -65.563125 45.36773437 -65.53125 46.13671875 C-65.44356169 50.53473188 -65.44356169 50.53473188 -63 54 C-60.38441532 54.30710343 -60.38441532 54.30710343 -57.296875 54.25878906 C-56.10223633 54.26509338 -54.90759766 54.27139771 -53.67675781 54.27789307 C-52.38092773 54.2738446 -51.08509766 54.26979614 -49.75 54.265625 C-48.41243418 54.26697178 -47.07486883 54.26891243 -45.73730469 54.27142334 C-42.93289534 54.274374 -40.12861331 54.27007894 -37.32421875 54.26074219 C-33.72595078 54.24934754 -30.12798114 54.25590734 -26.52972412 54.26788712 C-23.76739242 54.27510736 -21.00513167 54.27281706 -18.24279785 54.26763153 C-16.26961067 54.26564475 -14.29642074 54.27172842 -12.32324219 54.27789307 C-11.12860352 54.27158875 -9.93396484 54.26528442 -8.703125 54.25878906 C-7.64770508 54.25719788 -6.59228516 54.25560669 -5.50488281 54.25396729 C-2.8277166 54.24916529 -2.8277166 54.24916529 -1 52 C-0.66898466 49.69661198 -0.66898466 49.69661198 -0.68115234 46.99951172 C-0.66128265 45.95858368 -0.64141296 44.91765564 -0.62094116 43.84518433 C-0.60938995 42.71807037 -0.59783875 41.59095642 -0.5859375 40.4296875 C-0.56657135 39.27832306 -0.5472052 38.12695862 -0.5272522 36.94070435 C-0.46732628 33.25221231 -0.42101874 29.56368928 -0.375 25.875 C-0.33683223 23.37889241 -0.29778122 20.88279815 -0.2578125 18.38671875 C-0.16161412 12.25793063 -0.07660494 6.12906262 0 0 Z M-62 59 C-62 59.33 -62 59.66 -62 60 C-42.86 60 -23.72 60 -4 60 C-4 59.67 -4 59.34 -4 59 C-23.14 59 -42.28 59 -62 59 Z " fill="#E5F0F3" transform="translate(129,91)"/>
<path d="M0 0 C1.5631897 0.00785522 1.5631897 0.00785522 3.15795898 0.01586914 C4.28266602 0.0190918 5.40737305 0.02231445 6.56616211 0.02563477 C7.75016602 0.03401367 8.93416992 0.04239258 10.15405273 0.05102539 C11.34192383 0.05553711 12.52979492 0.06004883 13.75366211 0.06469727 C16.69967499 0.07652864 19.64558954 0.09301252 22.59155273 0.11352539 C22.59155273 1.10352539 22.59155273 2.09352539 22.59155273 3.11352539 C22.74121713 4.51128397 22.9087576 5.90721249 23.09155273 7.30102539 C23.33905273 9.18821289 23.33905273 9.18821289 23.59155273 11.11352539 C20.33765285 13.28279198 19.45759316 13.35432588 15.70483398 13.30883789 C14.29814453 13.29916992 14.29814453 13.29916992 12.86303711 13.28930664 C11.39833984 13.26416992 11.39833984 13.26416992 9.90405273 13.23852539 C8.91598633 13.22950195 7.92791992 13.22047852 6.90991211 13.21118164 C4.47021508 13.18760969 2.03100577 13.15470561 -0.40844727 13.11352539 C-0.07844727 13.77352539 0.25155273 14.43352539 0.59155273 15.11352539 C6.53155273 15.44352539 12.47155273 15.77352539 18.59155273 16.11352539 C18.59155273 17.76352539 18.59155273 19.41352539 18.59155273 21.11352539 C15.65350278 21.19438915 12.71767199 21.25395369 9.77905273 21.30102539 C8.94567383 21.32616211 8.11229492 21.35129883 7.25366211 21.37719727 C6.05 21.39169922 6.05 21.39169922 4.82202148 21.40649414 C4.08363037 21.42220459 3.34523926 21.43791504 2.58447266 21.45410156 C0.04602611 21.02029868 -0.73586348 20.01180144 -2.40844727 18.11352539 C-3.06844727 17.78352539 -3.72844727 17.45352539 -4.40844727 17.11352539 C-4.40844727 22.39352539 -4.40844727 27.67352539 -4.40844727 33.11352539 C-4.73844727 33.11352539 -5.06844727 33.11352539 -5.40844727 33.11352539 C-5.604807 29.65563485 -5.78902978 26.19720342 -5.97094727 22.73852539 C-6.02702148 21.75368164 -6.0830957 20.76883789 -6.14086914 19.75415039 C-6.18920898 18.81313477 -6.23754883 17.87211914 -6.28735352 16.90258789 C-6.33448486 16.03327637 -6.38161621 15.16396484 -6.43017578 14.26831055 C-6.40844727 12.11352539 -6.40844727 12.11352539 -5.40844727 10.11352539 C-4.74844727 10.11352539 -4.08844727 10.11352539 -3.40844727 10.11352539 C-3.42004883 9.47543945 -3.43165039 8.83735352 -3.44360352 8.17993164 C-3.45713867 6.94049805 -3.45713867 6.94049805 -3.47094727 5.67602539 C-3.48254883 4.85231445 -3.49415039 4.02860352 -3.50610352 3.17993164 C-3.36367472 0.16613837 -3.02118634 0.14240767 0 0 Z M0.59155273 1.11352539 C0.59155273 1.44352539 0.59155273 1.77352539 0.59155273 2.11352539 C6.20155273 2.11352539 11.81155273 2.11352539 17.59155273 2.11352539 C17.59155273 1.78352539 17.59155273 1.45352539 17.59155273 1.11352539 C11.98155273 1.11352539 6.37155273 1.11352539 0.59155273 1.11352539 Z M-2.40844727 8.11352539 C-1.40844727 10.11352539 -1.40844727 10.11352539 -1.40844727 10.11352539 Z M20.59155273 8.11352539 C21.59155273 10.11352539 21.59155273 10.11352539 21.59155273 10.11352539 Z " fill="#DBA573" transform="translate(86.408447265625,39.886474609375)"/>
<path d="M0 0 C0.33 0.66 0.66 1.32 1 2 C8.92 2 16.84 2 25 2 C25.33 1.34 25.66 0.68 26 0 C26.33 0.99 26.66 1.98 27 3 C23.74610012 5.16926659 22.86604043 5.24080049 19.11328125 5.1953125 C18.17548828 5.18886719 17.23769531 5.18242188 16.27148438 5.17578125 C14.80678711 5.15064453 14.80678711 5.15064453 13.3125 5.125 C12.32443359 5.11597656 11.33636719 5.10695313 10.31835938 5.09765625 C7.87866235 5.0740843 5.43945303 5.04118022 3 5 C3.33 5.66 3.66 6.32 4 7 C9.94 7.33 15.88 7.66 22 8 C22 9.65 22 11.3 22 13 C19.06195004 13.08086376 16.12611925 13.1404283 13.1875 13.1875 C11.93743164 13.22520508 11.93743164 13.22520508 10.66210938 13.26367188 C9.45844727 13.27817383 9.45844727 13.27817383 8.23046875 13.29296875 C7.12288208 13.31653442 7.12288208 13.31653442 5.99291992 13.34057617 C3.45447338 12.90677329 2.67258379 11.89827605 1 10 C0.34 9.67 -0.32 9.34 -1 9 C-1 14.28 -1 19.56 -1 25 C-1.33 25 -1.66 25 -2 25 C-2.19635974 21.54210946 -2.38058252 18.08367803 -2.5625 14.625 C-2.61857422 13.64015625 -2.67464844 12.6553125 -2.73242188 11.640625 C-2.80493164 10.22910156 -2.80493164 10.22910156 -2.87890625 8.7890625 C-2.9260376 7.91975098 -2.97316895 7.05043945 -3.02172852 6.15478516 C-3 4 -3 4 -2 2 C-1.34 2 -0.68 2 0 2 C0 1.34 0 0.68 0 0 Z " fill="#DEE2DE" transform="translate(83,48)"/>
<path d="M0 0 C1.65 0 3.3 0 5 0 C6.09658936 3.28976808 5.79953138 4.71303767 5 8 C3.68 8.33 2.36 8.66 1 9 C1 19.23 1 29.46 1 40 C0.34 40 -0.32 40 -1 40 C-1 45.28 -1 50.56 -1 56 C-1.33 56 -1.66 56 -2 56 C-2.05073147 48.82839988 -2.08574687 41.6568461 -2.10986328 34.48510742 C-2.1199176 32.0456367 -2.13356292 29.60617803 -2.15087891 27.16674805 C-2.17515182 23.65931221 -2.18648891 20.15203579 -2.1953125 16.64453125 C-2.20563507 15.55477493 -2.21595764 14.46501862 -2.22659302 13.34223938 C-2.22681961 11.81121834 -2.22681961 11.81121834 -2.22705078 10.24926758 C-2.231492 9.35436111 -2.23593323 8.45945465 -2.24050903 7.53742981 C-1.97350263 4.72044624 -1.16460699 2.56584518 0 0 Z " fill="#FBE5D4" transform="translate(65,87)"/>
<path d="M0 0 C1.32 0 2.64 0 4 0 C4.14141393 10.05610192 3.72904559 19.97562315 3 30 C2.01 30.33 1.02 30.66 0 31 C0 20.77 0 10.54 0 0 Z " fill="#FBF2E9" transform="translate(66,96)"/>
<path d="M0 0 C5.94 0 11.88 0 18 0 C18 1.32 18 2.64 18 4 C12.06 4 6.12 4 0 4 C0 2.68 0 1.36 0 0 Z " fill="#DA9F69" transform="translate(87,57)"/>
<path d="M0 0 C0.66 0 1.32 0 2 0 C2 5.28 2 10.56 2 16 C1.34 16 0.68 16 0 16 C0 21.28 0 26.56 0 32 C-0.33 32 -0.66 32 -1 32 C-1.02465504 27.60343827 -1.04283842 23.2069128 -1.05493164 18.81030273 C-1.05997121 17.31355082 -1.06680287 15.81680384 -1.07543945 14.32006836 C-1.08752159 12.17300193 -1.09323191 10.02600038 -1.09765625 7.87890625 C-1.10289307 6.5854126 -1.10812988 5.29191895 -1.11352539 3.95922852 C-1 1 -1 1 0 0 Z " fill="#E8C7A6" transform="translate(64,111)"/>
<path d="M0 0 C8.25 0 16.5 0 25 0 C25 0.99 25 1.98 25 3 C17.08 3 9.16 3 1 3 C1 4.65 1 6.3 1 8 C-0.0625 6.25 -0.0625 6.25 -1 4 C-0.67 2.68 -0.34 1.36 0 0 Z M3 1 C3 1.33 3 1.66 3 2 C8.61 2 14.22 2 20 2 C20 1.67 20 1.34 20 1 C14.39 1 8.78 1 3 1 Z " fill="#E9D3C1" transform="translate(84,40)"/>
<path d="M0 0 C0.99 0 1.98 0 3 0 C3 4.95 3 9.9 3 15 C2.01 15.33 1.02 15.66 0 16 C0 10.72 0 5.44 0 0 Z " fill="#F5E7D7" transform="translate(66,111)"/>
<path d="M0 0 C0.66 0 1.32 0 2 0 C2 4.95 2 9.9 2 15 C1.01 15 0.02 15 -1 15 C-1.02685412 12.68756208 -1.04632841 10.3750373 -1.0625 8.0625 C-1.07410156 6.77472656 -1.08570312 5.48695313 -1.09765625 4.16015625 C-1 1 -1 1 0 0 Z " fill="#EBD5C0" transform="translate(67,126)"/>
<path d="M0 0 C0 4.95 0 9.9 0 15 C-0.99 15.33 -1.98 15.66 -3 16 C-3 11.05 -3 6.1 -3 1 C-1 0 -1 0 0 0 Z " fill="#F9E9D5" transform="translate(66,96)"/>
<path d="M0 0 C0.99 0.33 1.98 0.66 3 1 C1.125 4.875 1.125 4.875 0 6 C1.65 6.33 3.3 6.66 5 7 C5 7.33 5 7.66 5 8 C-1.0546875 8.1953125 -1.0546875 8.1953125 -3 8 C-3.66 7.34 -4.32 6.68 -5 6 C-3.35 4.02 -1.7 2.04 0 0 Z " fill="#ECF0EF" transform="translate(73,80)"/>
<path d="M0 0 C0.66 0 1.32 0 2 0 C1.67 2.97 1.34 5.94 1 9 C0.01 9.33 -0.98 9.66 -2 10 C-1.125 2.25 -1.125 2.25 0 0 Z " fill="#F7CEB0" transform="translate(65,87)"/>
<path d="M0 0 C0.33 0.66 0.66 1.32 1 2 C-0.65 2.33 -2.3 2.66 -4 3 C-3 1 -3 1 0 0 Z " fill="#D9E5EA" transform="translate(77,72)"/>
<path d="M0 0 C2.475 0.99 2.475 0.99 5 2 C4.01 2.495 4.01 2.495 3 3 C2.01 2.67 1.02 2.34 0 2 C0 1.34 0 0.68 0 0 Z " fill="#DEE4EB" transform="translate(114,72)"/>
<path d="M0 0 C0.66 0 1.32 0 2 0 C1.67 1.32 1.34 2.64 1 4 C0.67 2.68 0.34 1.36 0 0 Z " fill="#F1E7F5" transform="translate(111,47)"/>
<path d="M0 0 C0.99 0.495 0.99 0.495 2 1 C1.67 1.99 1.34 2.98 1 4 C0.67 2.68 0.34 1.36 0 0 Z " fill="#F7F8FD" transform="translate(79,47)"/>
<path d="M0 0 C0.99 0.495 0.99 0.495 2 1 C1.01 1.495 1.01 1.495 0 2 C0 1.34 0 0.68 0 0 Z " fill="#F1F8F5" transform="translate(127,150)"/>
<path d="M0 0 C0.66 0 1.32 0 2 0 C1.67 0.66 1.34 1.32 1 2 C0.67 1.34 0.34 0.68 0 0 Z " fill="#F1F9EA" transform="translate(63,150)"/>
<path d="" fill="#DFEFDD" transform="translate(0,0)"/>
<path d="" fill="#E0EAE8" transform="translate(0,0)"/>
<path d="" fill="#C59087" transform="translate(0,0)"/>
<path d="" fill="#DAEEED" transform="translate(0,0)"/>
<path d="" fill="#CDD3E4" transform="translate(0,0)"/>
<path d="" fill="#C5D2E4" transform="translate(0,0)"/>
<path d="" fill="#BDD5E2" transform="translate(0,0)"/>
<path d="" fill="#DCE8EB" transform="translate(0,0)"/>
<path d="" fill="#DDE8EA" transform="translate(0,0)"/>
<path d="" fill="#FAF6FF" transform="translate(0,0)"/>
<path d="" fill="#FFFDFE" transform="translate(0,0)"/>
<path d="" fill="#CD5163" transform="translate(0,0)"/>
<path d="" fill="#FFFFFF" transform="translate(0,0)"/>
<path d="" fill="#FEFFF3" transform="translate(0,0)"/>
<path d="" fill="#FEFFEA" transform="translate(0,0)"/>
<path d="" fill="#EBEBE8" transform="translate(0,0)"/>
<path d="" fill="#D3E4EA" transform="translate(0,0)"/>
<path d="" fill="#AAD4E1" transform="translate(0,0)"/>
<path d="" fill="#C6D7ED" transform="translate(0,0)"/>
<path d="" fill="#DDEBEE" transform="translate(0,0)"/>
<path d="" fill="#DEF0EB" transform="translate(0,0)"/>
<path d="" fill="#DEF3E7" transform="translate(0,0)"/>
<path d="" fill="#FFFFFF" transform="translate(0,0)"/>
<path d="" fill="#AFCECE" transform="translate(0,0)"/>
<path d="" fill="#E3F4EB" transform="translate(0,0)"/>
<path d="" fill="#DEECE9" transform="translate(0,0)"/>
<path d="" fill="#CFE3E7" transform="translate(0,0)"/>
<path d="" fill="#E3F6F0" transform="translate(0,0)"/>
<path d="" fill="#EBF0F2" transform="translate(0,0)"/>
<path d="" fill="#D5E6E5" transform="translate(0,0)"/>
<path d="" fill="#DCEAEC" transform="translate(0,0)"/>
<path d="" fill="#DFFAEE" transform="translate(0,0)"/>
<path d="" fill="#DDF1EA" transform="translate(0,0)"/>
<path d="" fill="#000038" transform="translate(0,0)"/>
<path d="" fill="#F4F8F4" transform="translate(0,0)"/>
<path d="" fill="#DEF2E9" transform="translate(0,0)"/>
<path d="" fill="#F8FDF5" transform="translate(0,0)"/>
<path d="" fill="#DFEFEA" transform="translate(0,0)"/>
<path d="" fill="#DAE5EA" transform="translate(0,0)"/>
<path d="" fill="#D0E2E1" transform="translate(0,0)"/>
<path d="" fill="#DAE6E6" transform="translate(0,0)"/>
<path d="" fill="#DAE6EB" transform="translate(0,0)"/>
<path d="" fill="#E3EBEA" transform="translate(0,0)"/>
<path d="" fill="#E7EBEA" transform="translate(0,0)"/>
<path d="" fill="#D9E4EC" transform="translate(0,0)"/>
<path d="" fill="#D7E2E8" transform="translate(0,0)"/>
<path d="" fill="#E8F1ED" transform="translate(0,0)"/>
<path d="" fill="#E9F3F0" transform="translate(0,0)"/>
<path d="" fill="#EAF7F2" transform="translate(0,0)"/>
<path d="" fill="#EEE9F5" transform="translate(0,0)"/>
<path d="" fill="#FFFFFF" transform="translate(0,0)"/>
<path d="" fill="#EFFAFD" transform="translate(0,0)"/>
<path d="" fill="#EFFEFE" transform="translate(0,0)"/>
<path d="" fill="#FFFFFF" transform="translate(0,0)"/>
<path d="" fill="#F7FBFC" transform="translate(0,0)"/>
</svg>
