<?xml version="1.0" encoding="UTF-8"?>
<svg version="1.1" xmlns="http://www.w3.org/2000/svg" width="512" height="512">
<path d="M0 0 C19.8 0 39.6 0 60 0 C60.495 1.485 60.495 1.485 61 3 C61.99 3 62.98 3 64 3 C64.125 6.375 64.125 6.375 64 10 C63.34 10.66 62.68 11.32 62 12 C61.53837573 14.43252661 61.53837573 14.43252661 61.375 17.125 C61.30023438 18.03507812 61.22546875 18.94515625 61.1484375 19.8828125 C61.09945312 20.58148438 61.05046875 21.28015625 61 22 C61.99 21.505 61.99 21.505 63 21 C64.99960012 20.960008 67.00047242 20.95653201 69 21 C71.37590142 24.70416126 71.20500286 27.92984573 71.125 32.25 C71.10695313 33.51328125 71.08890625 34.7765625 71.0703125 36.078125 C71.04710937 37.04234375 71.02390625 38.0065625 71 39 C69.68 39.66 68.36 40.32 67 41 C67 55.52 67 70.04 67 85 C69.475 84.505 69.475 84.505 72 84 C82.45579692 85.46800587 92.76659603 89.19553782 100 97 C105.22962719 100.86701445 105.22962719 100.86701445 110.99609375 103.80078125 C113.956236 105.57225039 115.61093002 108.19144636 117.5 111 C117.89582275 111.58450928 118.29164551 112.16901855 118.69946289 112.77124023 C126.90498338 125.20606025 128.30651477 138.31546236 128.2746582 152.96948242 C128.27976913 154.20523514 128.28488007 155.44098785 128.29014587 156.71418762 C128.30156925 160.06529664 128.30413145 163.4161563 128.30158257 166.76726699 C128.30050401 169.57793606 128.30541809 172.38858293 128.310188 175.19924718 C128.32123091 181.83231166 128.32174868 188.46531948 128.31567383 195.09838867 C128.30962363 201.91839527 128.32198343 208.73819611 128.3432439 215.55816764 C128.36090009 221.44046813 128.36685536 227.32270332 128.36360615 233.20502931 C128.36180123 236.7067882 128.36435081 240.20839989 128.37832069 243.71013451 C128.39331368 247.61307144 128.38389383 251.51574847 128.37231445 255.41870117 C128.37995819 256.56438568 128.38760193 257.71007019 128.39547729 258.89047241 C128.34358382 266.8216811 127.62600483 274.86096019 122.0625 281 C121.33740234 281.8353125 121.33740234 281.8353125 120.59765625 282.6875 C118.76064003 284.19663802 117.3213625 284.59890065 115 285 C115.33 285.99 115.66 286.98 116 288 C107.12733355 290.95755548 96.944186 290.14389284 87.70703125 290.12939453 C86.3045548 290.13075283 84.9020787 290.13253515 83.49960327 290.13470459 C79.72276799 290.13922799 75.94596031 290.1375105 72.1691246 290.1343255 C68.19714031 290.1317754 64.22515822 290.13414678 60.25317383 290.13571167 C53.58577047 290.13752567 46.91837823 290.13514729 40.25097656 290.13037109 C32.56711721 290.12492996 24.88328441 290.12669316 17.1994257 290.1321975 C10.57572994 290.1367506 3.95204212 290.13736845 -2.6716547 290.13475883 C-6.61609901 290.13320812 -10.56053088 290.13296898 -14.50497437 290.13629532 C-18.21507369 290.13920608 -21.92513913 290.13714007 -25.63523483 290.13140106 C-27.62853704 290.12947055 -29.62184214 290.13239995 -31.61514282 290.13552856 C-47.6326224 290.09822749 -47.6326224 290.09822749 -53 289 C-53.33 288.34 -53.66 287.68 -54 287 C-53.67 286.34 -53.34 285.68 -53 285 C-53.70125 284.814375 -54.4025 284.62875 -55.125 284.4375 C-60.03420226 281.98289887 -63.14850794 278.27903037 -65.06608582 273.14660645 C-66.55214626 267.69732546 -66.28656184 262.11637859 -66.2746582 256.50976562 C-66.27976913 255.26487366 -66.28488007 254.01998169 -66.29014587 252.73736572 C-66.30163512 249.33597441 -66.30411947 245.93482747 -66.30158257 242.53343391 C-66.30050817 239.68133078 -66.30540887 236.82924976 -66.310188 233.97715139 C-66.3212689 227.23605267 -66.32173044 220.49500966 -66.31567383 213.75390625 C-66.30965281 206.83585347 -66.32190043 199.91800505 -66.3432439 192.99998713 C-66.36096398 187.03361813 -66.36684447 181.06731353 -66.36360615 175.10091925 C-66.36180753 171.54971099 -66.364284 167.99864806 -66.37832069 164.44746399 C-66.53441582 121.17616255 -66.53441582 121.17616255 -50 104 C-48.69163189 103.28558058 -47.35357705 102.62454094 -46 102 C-43.92119523 100.69223291 -41.85980115 99.35655521 -39.8125 98 C-38.74644531 97.29875 -37.68039063 96.5975 -36.58203125 95.875 C-33.93628755 94.2567053 -33.93628755 94.2567053 -33 92 C-26.2158204 87.99346217 -17.71544194 85.28590699 -10 84 C-8.35 84.66 -6.7 85.32 -5 86 C-5 71.15 -5 56.3 -5 41 C-6.32 40.34 -7.64 39.68 -9 39 C-9 33.06 -9 27.12 -9 21 C-6.36 21 -3.72 21 -1 21 C-0.505 21.99 -0.505 21.99 0 23 C0 21.35 0 19.7 0 18 C-0.33 18 -0.66 18 -1 18 C-1.06058594 17.30132812 -1.12117188 16.60265625 -1.18359375 15.8828125 C-1.26738281 14.97273438 -1.35117188 14.06265625 -1.4375 13.125 C-1.51871094 12.22007813 -1.59992188 11.31515625 -1.68359375 10.3828125 C-1.86989285 7.98889139 -1.86989285 7.98889139 -3 6 C-2.125 4 -2.125 4 -1 2 C-0.67 1.34 -0.34 0.68 0 0 Z M8 1 C8 1.33 8 1.66 8 2 C10.31 2 12.62 2 15 2 C15 1.67 15 1.34 15 1 C12.69 1 10.38 1 8 1 Z M21 1 C21 1.33 21 1.66 21 2 C23.31 2 25.62 2 28 2 C28 1.67 28 1.34 28 1 C25.69 1 23.38 1 21 1 Z M1 19 C2 23 2 23 2 23 Z M-4 41 C-4 55.52 -4 70.04 -4 85 C-3.67 85 -3.34 85 -3 85 C-3 70.48 -3 55.96 -3 41 C-3.33 41 -3.66 41 -4 41 Z M65 41 C65 55.52 65 70.04 65 85 C65.33 85 65.66 85 66 85 C66 70.48 66 55.96 66 41 C65.67 41 65.34 41 65 41 Z M-16 87 C-12 88 -12 88 -12 88 Z M-50 287 C-50 287.33 -50 287.66 -50 288 C-47.36 288 -44.72 288 -42 288 C-42 287.67 -42 287.34 -42 287 C-44.64 287 -47.28 287 -50 287 Z M-12 287 C-8 288 -8 288 -8 288 Z M51 287 C55 288 55 288 55 288 Z M74 287 C74 287.33 74 287.66 74 288 C83.24 288 92.48 288 102 288 C102 287.67 102 287.34 102 287 C92.76 287 83.52 287 74 287 Z M108 287 C112 288 112 288 112 288 Z M16 288 C16 288.33 16 288.66 16 289 C18.31 289 20.62 289 23 289 C23 288.67 23 288.34 23 288 C20.69 288 18.38 288 16 288 Z " fill="#E2ECED" transform="translate(225,111)"/>
<path d="M0 0 C2.09806987 0.66368027 4.19885649 1.3182035 6.30004883 1.97192383 C8.23435105 2.58073174 10.16053565 3.21516652 12.0859375 3.8515625 C21.14793261 6.62005213 29.66635314 7.29090293 39.125 7.1875 C40.25292969 7.18685547 41.38085938 7.18621094 42.54296875 7.18554688 C48.45100026 7.15445197 54.1586134 6.89263243 60 6 C65.77511131 16.5447345 64.3810989 28.37208612 64 40 C53.41639685 43.6748622 44.62196558 45.33737682 33.375 45.25 C31.49312988 45.23876099 31.49312988 45.23876099 29.57324219 45.22729492 C11.4901089 45.016725 -3.82646567 40.71264112 -20.625 34.4375 C-48.48921014 24.06754933 -73.88347202 22.14724534 -103 27 C-103 40.2 -103 53.4 -103 67 C-97.72 66.01 -92.44 65.02 -87 64 C-82.65908443 63.73722648 -78.51334792 63.56429108 -74.1875 63.625 C-73.06134277 63.63950195 -71.93518555 63.65400391 -70.77490234 63.66894531 C-52.29993784 64.06376575 -36.73348128 68.53791214 -19.37036133 74.50805664 C-10.92128679 77.40713844 -2.52403064 80.16144965 6.1875 82.1875 C6.97431152 82.37103027 7.76112305 82.55456055 8.57177734 82.74365234 C24.19950014 86.16876547 41.25325548 86.40593439 56.69140625 81.9296875 C60 81 60 81 64 81 C64.06955626 90.04047403 64.12283974 99.08085573 64.15543652 108.12153912 C64.17108253 112.31964772 64.1923012 116.51757304 64.22631836 120.71557617 C64.25895002 124.76802684 64.27686102 128.82030138 64.28463173 132.87287331 C64.29016843 134.41782211 64.30098034 135.96276143 64.31719017 137.50763512 C64.33901566 139.67416477 64.34196488 141.83996963 64.34057617 144.0065918 C64.35056892 145.85525093 64.35056892 145.85525093 64.36076355 147.74125671 C63.83246484 152.51332937 61.67162348 155.94031377 58 159 C54.69029817 160.10323394 52.21295265 160.13972094 48.72601318 160.16062927 C47.41098312 160.1706749 46.09595306 160.18072052 44.74107361 160.19107056 C43.28018246 160.19710059 41.8192907 160.2029856 40.35839844 160.20874023 C38.82253302 160.21827923 37.28666976 160.22817041 35.75080872 160.23838806 C30.70369007 160.26976651 25.65655496 160.29003839 20.609375 160.30859375 C19.75052987 160.31189107 18.89168474 160.31518839 18.006814 160.31858563 C9.90639671 160.34936483 1.80597568 160.37607071 -6.29448318 160.39300442 C-16.65326779 160.4149136 -27.01153425 160.45689311 -37.3701117 160.52644199 C-44.6551441 160.57369294 -51.94003675 160.59793937 -59.22521758 160.6052013 C-63.57567055 160.61015572 -67.92553941 160.62521598 -72.2758255 160.6649456 C-76.37017747 160.70184549 -80.46361255 160.7102112 -84.55809975 160.69693947 C-86.05810275 160.69699336 -87.55814674 160.7072676 -89.05799675 160.7286911 C-101.78818182 160.90075848 -101.78818182 160.90075848 -106.38494873 157.14393616 C-109.78983662 153.64067932 -110.12623472 150.38404751 -110.14717102 145.63282776 C-110.15432632 144.51854904 -110.16148163 143.40427032 -110.16885376 142.25622559 C-110.17288712 140.42118469 -110.17288712 140.42118469 -110.17700195 138.54907227 C-110.18357315 137.26093124 -110.19014435 135.97279022 -110.19691467 134.64561462 C-110.21794784 130.36922448 -110.2283219 126.09283405 -110.23828125 121.81640625 C-110.24233022 120.34101785 -110.24644718 118.86562964 -110.25063133 117.39024162 C-110.26968775 110.45226656 -110.28391328 103.51430212 -110.2922433 96.57630593 C-110.30199341 88.58856885 -110.32825236 80.60111054 -110.36874419 72.61347157 C-110.39901377 66.42813442 -110.41372272 60.24287663 -110.41702431 54.05746692 C-110.41936407 50.3692916 -110.42818174 46.68141387 -110.45348549 42.99331856 C-110.4813351 38.86719717 -110.47690219 34.74168824 -110.4699707 30.61547852 C-110.48278076 29.410336 -110.49559082 28.20519348 -110.50878906 26.96353149 C-110.45632004 18.35202864 -108.87295014 10.74590028 -105 3 C-104.39776611 3.06928711 -103.79553223 3.13857422 -103.17504883 3.20996094 C-87.33773333 4.92738907 -72.35095909 4.88936902 -57.16015625 -0.3125 C-38.64594557 -6.39977747 -18.46388783 -6.16785082 0 0 Z " fill="#F8D0B1" transform="translate(279,229)"/>
<path d="M0 0 C26.13896081 9.91172887 53.10435921 14.37289352 80.28417969 5.79785156 C81.27417969 5.79785156 82.26417969 5.79785156 83.28417969 5.79785156 C83.35859958 9.97872309 83.41290787 14.15923886 83.44897461 18.34057617 C83.46401729 19.76154298 83.48445673 21.18246369 83.51049805 22.60327148 C83.54708316 24.65132042 83.56395066 26.69875306 83.57714844 28.74707031 C83.60071411 30.5930481 83.60071411 30.5930481 83.62475586 32.47631836 C83.13094948 37.29225801 80.98588144 40.7131001 77.28417969 43.79785156 C73.97447786 44.90108551 71.49713233 44.9375725 68.01019287 44.95848083 C66.69516281 44.96852646 65.38013275 44.97857208 64.0252533 44.98892212 C62.56436214 44.99495216 61.10347039 45.00083716 59.64257812 45.0065918 C58.10671271 45.01613079 56.57084945 45.02602197 55.0349884 45.03623962 C49.98786975 45.06761807 44.94073465 45.08788996 39.89355469 45.10644531 C39.03470956 45.10974263 38.17586443 45.11303996 37.29099369 45.1164372 C29.1905764 45.14721639 21.09015537 45.17392227 12.9896965 45.19085598 C2.6309119 45.21276516 -7.72735456 45.25474467 -18.08593202 45.32429355 C-25.37096442 45.37154451 -32.65585706 45.39579093 -39.94103789 45.40305287 C-44.29149086 45.40800728 -48.64135972 45.42306755 -52.99164581 45.46279716 C-57.08599778 45.49969706 -61.17943286 45.50806276 -65.27392006 45.49479103 C-66.77392307 45.49484492 -68.27396705 45.50511917 -69.77381706 45.52654266 C-82.50400213 45.69861005 -82.50400213 45.69861005 -87.10076904 41.94178772 C-90.12317301 38.83206496 -90.842467 35.95802607 -90.8293457 31.69360352 C-90.82927017 30.87297928 -90.82919464 30.05235504 -90.82911682 29.2068634 C-90.82395554 28.32552231 -90.81879425 27.44418121 -90.81347656 26.53613281 C-90.81206161 25.63033981 -90.81064667 24.72454681 -90.80918884 23.79130554 C-90.80359033 20.89762065 -90.79103812 18.00401307 -90.77832031 15.11035156 C-90.77330512 13.14876414 -90.76874225 11.1871755 -90.76464844 9.22558594 C-90.75362138 4.41631135 -90.73635778 -0.39290544 -90.71582031 -5.20214844 C-88.73582031 -5.53214844 -86.75582031 -5.86214844 -84.71582031 -6.20214844 C-84.69600098 -5.1220752 -84.67618164 -4.04200195 -84.65576172 -2.92919922 C-84.57980408 1.0703907 -84.49107216 5.06961208 -84.3984375 9.06884766 C-84.36010691 10.80119563 -84.32526125 12.53362431 -84.29394531 14.26611328 C-84.24838267 16.75354905 -84.19037528 19.24042723 -84.12988281 21.72753906 C-84.1183316 22.50467255 -84.1067804 23.28180603 -84.09487915 24.08248901 C-84.12788264 28.40436131 -84.12788264 28.40436131 -81.71582031 31.79785156 C-79.17392029 32.04792886 -79.17392029 32.04792886 -76.71582031 31.79785156 C-74.5849559 29.66698715 -75.45621159 24.90618221 -75.39941406 21.95019531 C-75.37863297 21.06376846 -75.35785187 20.17734161 -75.33644104 19.26405334 C-75.27084631 16.42123456 -75.21201479 13.5783204 -75.15332031 10.73535156 C-75.11014451 8.8128155 -75.06653054 6.89028922 -75.02246094 4.96777344 C-74.91515488 0.24456488 -74.81391581 -4.47873997 -74.71582031 -9.20214844 C-48.21048864 -12.77297317 -24.72675142 -9.46848554 0 0 Z " fill="#D4A477" transform="translate(259.7158203125,344.2021484375)"/>
<path d="M0 0 C15.003557 5.56173067 29.48097616 7.66115411 45.43579102 7.79150391 C46.58821289 7.82050781 47.74063477 7.84951172 48.92797852 7.87939453 C59.2561521 7.95349291 66.25810809 5.99139989 76.93579102 3.47900391 C76.93579102 17.00900391 76.93579102 30.53900391 76.93579102 44.47900391 C57.92503833 49.23169208 57.92503833 49.23169208 50.93579102 49.47900391 C49.33864258 49.53894531 49.33864258 49.53894531 47.70922852 49.60009766 C28.09671891 49.96973476 10.14504434 44.65796773 -8.20922852 38.34716797 C-36.41900357 28.65588474 -60.06495175 26.72909675 -90.06420898 30.47900391 C-90.06420898 17.27900391 -90.06420898 4.07900391 -90.06420898 -9.52099609 C-58.33018672 -18.17572944 -29.95758889 -11.29371867 0 0 Z " fill="#FAE9D4" transform="translate(266.064208984375,265.52099609375)"/>
<path d="M0 0 C8.44907454 2.8990818 16.84633069 5.65339301 25.55786133 7.67944336 C26.34467285 7.86297363 27.13148438 8.04650391 27.94213867 8.2355957 C43.56986147 11.66070883 60.62361681 11.89787775 76.06176758 7.42163086 C79.37036133 6.49194336 79.37036133 6.49194336 83.37036133 6.49194336 C83.37036133 19.69194336 83.37036133 32.89194336 83.37036133 46.49194336 C52.92818361 55.62459668 25.88243826 51.56580637 -3.37963867 40.36694336 C-27.72774586 31.10355479 -48.64472822 31.11398103 -74.62963867 31.49194336 C-74.62963867 17.96194336 -74.62963867 4.43194336 -74.62963867 -9.50805664 C-47.94667019 -13.31990928 -24.99842188 -8.59547082 0 0 Z " fill="#ECCBA9" transform="translate(259.629638671875,303.508056640625)"/>
<path d="M0 0 C5.69051363 0.5381371 11.34865884 1.1400133 17 2 C16.72285156 2.68964844 16.44570312 3.37929687 16.16015625 4.08984375 C13.81957852 10.16201871 12.42585354 15.50573352 12 22 C8.7 22.66 5.4 23.32 2 24 C2 37.2 2 50.4 2 64 C6.455 63.505 6.455 63.505 11 63 C11.04627317 73.39614413 11.08184359 83.7922639 11.10362434 94.18848991 C11.11407626 99.01550805 11.12826104 103.84245591 11.15087891 108.66943359 C11.17255722 113.32485778 11.18455801 117.98021422 11.18975449 122.63568497 C11.19345928 124.41475619 11.20069348 126.19382356 11.21146011 127.97286606 C11.22590854 130.45839294 11.22798075 132.94363733 11.22705078 135.42919922 C11.23783661 136.54050201 11.23783661 136.54050201 11.24884033 137.67425537 C11.22810432 142.77189568 11.22810432 142.77189568 9 145 C6.32331895 145.34316424 4.6865346 145.42192528 2.3581543 143.9909668 C0.21281867 140.84604283 0.63339699 137.50318418 0.70703125 133.83203125 C0.71127609 133.03721848 0.71552094 132.2424057 0.71989441 131.42350769 C0.7366807 128.88615979 0.77433176 126.34960762 0.8125 123.8125 C0.82754695 122.09180835 0.84123534 120.37110424 0.85351562 118.65039062 C0.88658393 114.43328738 0.93836505 110.21677858 1 106 C-1.97 106.495 -1.97 106.495 -5 107 C-5.09298878 95.08162193 -5.1639111 83.16333123 -5.20724869 71.24466324 C-5.22805648 65.70936449 -5.25624907 60.17431531 -5.30175781 54.63916016 C-5.34545918 49.28989992 -5.36918822 43.94087863 -5.37950897 38.59145355 C-5.38685693 36.55825799 -5.40120497 34.52507438 -5.42292023 32.49198151 C-5.54391748 20.68601071 -5.38227656 10.76455312 0 0 Z " fill="#F8E7D5" transform="translate(174,232)"/>
<path d="M0 0 C19.8 0 39.6 0 60 0 C60.495 1.485 60.495 1.485 61 3 C61.99 3 62.98 3 64 3 C64.125 6.375 64.125 6.375 64 10 C63.34 10.66 62.68 11.32 62 12 C61.01 15.96 60.02 19.92 59 24 C40.52 24 22.04 24 3 24 C2.34 22.35 1.68 20.7 1 19 C0.34 18.67 -0.32 18.34 -1 18 C-1.37890625 15.78515625 -1.37890625 15.78515625 -1.5625 13.0625 C-1.76801323 9.39324879 -1.76801323 9.39324879 -3 6 C-2.125 4 -2.125 4 -1 2 C-0.67 1.34 -0.34 0.68 0 0 Z M8 1 C8 1.33 8 1.66 8 2 C10.31 2 12.62 2 15 2 C15 1.67 15 1.34 15 1 C12.69 1 10.38 1 8 1 Z M21 1 C21 1.33 21 1.66 21 2 C23.31 2 25.62 2 28 2 C28 1.67 28 1.34 28 1 C25.69 1 23.38 1 21 1 Z " fill="#DCA675" transform="translate(225,111)"/>
<path d="M0 0 C0 13.2 0 26.4 0 40 C4.455 39.505 4.455 39.505 9 39 C9.0493521 44.51756476 9.08569662 50.03500171 9.10986328 55.55273438 C9.11993534 57.43068682 9.13359362 59.30862353 9.15087891 61.18652344 C9.17507453 63.8822009 9.18647083 66.57767146 9.1953125 69.2734375 C9.20563507 70.11619232 9.21595764 70.95894714 9.22659302 71.82723999 C9.22699144 73.88621247 9.12257588 75.94467935 9 78 C7 80 7 80 4.5625 80.3125 C2 80 2 80 0.3581543 78.9909668 C-1.78718133 75.84604283 -1.36660301 72.50318418 -1.29296875 68.83203125 C-1.28872391 68.03721848 -1.28447906 67.2424057 -1.28010559 66.42350769 C-1.2633193 63.88615979 -1.22566824 61.34960762 -1.1875 58.8125 C-1.17245305 57.09180835 -1.15876466 55.37110424 -1.14648438 53.65039062 C-1.11341607 49.43328738 -1.06163495 45.21677858 -1 41 C-3.97 41.495 -3.97 41.495 -7 42 C-7 28.47 -7 14.94 -7 1 C-4 0 -4 0 0 0 Z " fill="#EAD3BD" transform="translate(176,297)"/>
<path d="M0 0 C16.17 0 32.34 0 49 0 C49 8 49 8 47 11 C45.10253906 11.38095093 45.10253906 11.38095093 42.765625 11.38818359 C41.89131836 11.39764008 41.01701172 11.40709656 40.11621094 11.4168396 C39.17036133 11.41076691 38.22451172 11.40469421 37.25 11.3984375 C36.28094727 11.40130768 35.31189453 11.40417786 34.31347656 11.40713501 C32.26236386 11.40917869 30.2112318 11.40362767 28.16015625 11.39111328 C25.01257939 11.37506414 21.86628671 11.39095194 18.71875 11.41015625 C16.72916382 11.40817387 14.73957844 11.40433031 12.75 11.3984375 C11.80415039 11.40451019 10.85830078 11.41058289 9.88378906 11.4168396 C9.00948242 11.40738312 8.13517578 11.39792664 7.234375 11.38818359 C6.46319336 11.38579681 5.69201172 11.38341003 4.89746094 11.38095093 C3 11 3 11 1 8 C0.67 5.36 0.34 2.72 0 0 Z " fill="#DBA370" transform="translate(231,152)"/>
<path d="M0 0 C0 13.2 0 26.4 0 40 C-6 42 -6 42 -10 42 C-10 28.8 -10 15.6 -10 2 C-4 0 -4 0 0 0 Z " fill="#FBF2E9" transform="translate(186,254)"/>
<path d="M0 0 C5.69051363 0.5381371 11.34865884 1.1400133 17 2 C16.72285156 2.68964844 16.44570312 3.37929687 16.16015625 4.08984375 C13.81957852 10.16201871 12.42585354 15.50573352 12 22 C9.73050898 22.67155349 7.4596039 23.3373963 5.1875 24 C3.29064453 24.556875 3.29064453 24.556875 1.35546875 25.125 C-2 26 -2 26 -5 26 C-5.60251675 16.56057086 -4.25716252 8.51432503 0 0 Z " fill="#FCE6D6" transform="translate(174,232)"/>
<path d="M0 0 C0 25.41 0 50.82 0 77 C-0.33 77 -0.66 77 -1 77 C-1 65.12 -1 53.24 -1 41 C-3.97 41.495 -3.97 41.495 -7 42 C-7 28.47 -7 14.94 -7 1 C-4 0 -4 0 0 0 Z " fill="#EDCAA7" transform="translate(176,297)"/>
<path d="M0 0 C19.8 0 39.6 0 60 0 C60 0.99 60 1.98 60 3 C31.29 3.495 31.29 3.495 2 4 C0.6278958 8.71058562 0.6278958 8.71058562 2 12 C2.03954234 14.33299825 2.04401732 16.66708189 2 19 C1.01 18.67 0.02 18.34 -1 18 C-1.06058594 17.30132812 -1.12117187 16.60265625 -1.18359375 15.8828125 C-1.26738281 14.97273438 -1.35117188 14.06265625 -1.4375 13.125 C-1.51871094 12.22007813 -1.59992188 11.31515625 -1.68359375 10.3828125 C-1.86989285 7.98889139 -1.86989285 7.98889139 -3 6 C-2.125 4 -2.125 4 -1 2 C-0.67 1.34 -0.34 0.68 0 0 Z M8 1 C8 1.33 8 1.66 8 2 C10.31 2 12.62 2 15 2 C15 1.67 15 1.34 15 1 C12.69 1 10.38 1 8 1 Z M21 1 C21 1.33 21 1.66 21 2 C23.31 2 25.62 2 28 2 C28 1.67 28 1.34 28 1 C25.69 1 23.38 1 21 1 Z " fill="#F8FAFA" transform="translate(225,111)"/>
<path d="M0 0 C1.98 0 3.96 0 6 0 C5.69106068 1.6256807 5.3777305 3.25052748 5.0625 4.875 C4.88847656 5.77992188 4.71445313 6.68484375 4.53515625 7.6171875 C4 10 4 10 3 12 C2.80295942 15.08259035 2.68181718 18.16303819 2.57421875 21.25 C2 24 2 24 0.14453125 25.375 C-2 26 -2 26 -5 26 C-5.60251675 16.56057086 -4.25716252 8.51432503 0 0 Z " fill="#F8CFAF" transform="translate(174,232)"/>
<path d="M0 0 C0.33 0 0.66 0 1 0 C1 42.57 1 85.14 1 129 C0.67 129 0.34 129 0 129 C0 86.43 0 43.86 0 0 Z " fill="#FEFDFD" transform="translate(157,251)"/>
<path d="M0 0 C0.33 0 0.66 0 1 0 C1 41.91 1 83.82 1 127 C0.67 127 0.34 127 0 127 C0 85.09 0 43.18 0 0 Z " fill="#FFFEFF" transform="translate(354,251)"/>
<path d="M0 0 C0.66 0.33 1.32 0.66 2 1 C2.1875 4.375 2.1875 4.375 2 8 C1.01 8.66 0.02 9.32 -1 10 C-0.67 8.02 -0.34 6.04 0 4 C-2.62177779 2.6891111 -4.61524634 2.83916293 -7.55126953 2.79467773 C-9.29284836 2.7647599 -9.29284836 2.7647599 -11.0696106 2.73423767 C-12.32796722 2.71752518 -13.58632385 2.70081268 -14.8828125 2.68359375 C-16.16735321 2.66281265 -17.45189392 2.64203156 -18.77536011 2.62062073 C-22.19149359 2.56540951 -25.60768745 2.51599612 -29.02392578 2.46777344 C-32.50949481 2.41755143 -35.99497609 2.36186903 -39.48046875 2.30664062 C-46.32023642 2.19907072 -53.16008334 2.09762316 -60 2 C-60 1.67 -60 1.34 -60 1 C-59.26306412 1.00222061 -58.52612823 1.00444122 -57.76686096 1.00672913 C-50.83587231 1.02673203 -43.90488796 1.04197413 -36.97387791 1.05181217 C-33.41022578 1.05703995 -29.84659743 1.06413569 -26.28295898 1.07543945 C-22.18993903 1.08834176 -18.0969442 1.09322906 -14.00390625 1.09765625 C-12.71851456 1.10281754 -11.43312286 1.10797882 -10.10877991 1.11329651 C-8.92763107 1.11337204 -7.74648224 1.11344757 -6.52954102 1.11352539 C-5.48363297 1.115746 -4.43772491 1.11796661 -3.36012268 1.12025452 C-1.04310705 1.26650985 -1.04310705 1.26650985 0 0 Z " fill="#E2BA95" transform="translate(287,113)"/>
<path d="M0 0 C17.16 0 34.32 0 52 0 C52 0.99 52 1.98 52 3 C50.89462891 2.84152588 49.78925781 2.68305176 48.65039062 2.51977539 C43.63415963 1.89522299 38.64375979 1.77521586 33.59375 1.68359375 C32.6284436 1.66281265 31.66313721 1.64203156 30.6685791 1.62062073 C27.61245213 1.55571038 24.55624592 1.49651484 21.5 1.4375 C19.41665877 1.39425901 17.33332529 1.35064302 15.25 1.30664062 C10.166746 1.20008975 5.08341301 1.09866085 0 1 C0 0.67 0 0.34 0 0 Z " fill="#FDFEFE" transform="translate(233,111)"/>
<path d="M0 0 C0.99 0.33 1.98 0.66 3 1 C4.1577506 4.47325181 4.06866652 7.36067448 4 11 C3.01 10.67 2.02 10.34 1 10 C0.67 6.7 0.34 3.4 0 0 Z " fill="#F4EDE5" transform="translate(223,119)"/>
<path d="M0 0 C0.66 0.33 1.32 0.66 2 1 C2.1875 4.375 2.1875 4.375 2 8 C1.01 8.66 0.02 9.32 -1 10 C-0.814375 9.05125 -0.62875 8.1025 -0.4375 7.125 C0.28686632 4.10131207 0.28686632 4.10131207 -1 2 C-0.67 1.34 -0.34 0.68 0 0 Z " fill="#F8F7F6" transform="translate(287,113)"/>
<path d="M0 0 C1.06671952 3.20015856 0.94845472 4.88544294 0.5625 8.1875 C0.46066406 9.08855469 0.35882813 9.98960938 0.25390625 10.91796875 C0.17011719 11.60503906 0.08632813 12.29210937 0 13 C-0.33 13 -0.66 13 -1 13 C-1.33 9.04 -1.66 5.08 -2 1 C-1.34 0.67 -0.68 0.34 0 0 Z " fill="#E3BE9D" transform="translate(286,116)"/>
<path d="M0 0 C0 0.66 0 1.32 0 2 C-2.64 2 -5.28 2 -8 2 C-6.14210462 -1.71579076 -3.44525918 -1.06921837 0 0 Z " fill="#EDF3F3" transform="translate(274,399)"/>
<path d="M0 0 C0.33 0 0.66 0 1 0 C1 2.31 1 4.62 1 7 C0.67 7 0.34 7 0 7 C0 4.69 0 2.38 0 0 Z " fill="#EAF4F1" transform="translate(158,243)"/>
<path d="M0 0 C0.33 0 0.66 0 1 0 C1 2.31 1 4.62 1 7 C0.67 7 0.34 7 0 7 C0 4.69 0 2.38 0 0 Z " fill="#DCF1EA" transform="translate(353,244)"/>
<path d="M0 0 C0.33 0 0.66 0 1 0 C1 1.65 1 3.3 1 5 C0.67 5 0.34 5 0 5 C0 3.35 0 1.7 0 0 Z " fill="#F7EFEE" transform="translate(287,123)"/>
<path d="M0 0 C1 4 1 4 1 4 Z " fill="#E9F2F4" transform="translate(158,380)"/>
<path d="M0 0 C1 4 1 4 1 4 Z " fill="#E3F8EB" transform="translate(353,379)"/>
<path d="M0 0 C1 4 1 4 1 4 Z " fill="#E8F8EF" transform="translate(352,239)"/>
<path d="M0 0 C1 4 1 4 1 4 Z " fill="#EDF7F4" transform="translate(159,239)"/>
<path d="M0 0 C0 3 0 3 0 3 Z " fill="#F8FDFB" transform="translate(295,151)"/>
<path d="M0 0 C0.66 0.66 1.32 1.32 2 2 C1.01 2.495 1.01 2.495 0 3 C0 2.01 0 1.02 0 0 Z " fill="#FBF4F9" transform="translate(216,151)"/>
<path d="M0 0 C1 4 1 4 1 4 Z " fill="#F6EDEE" transform="translate(286,129)"/>
<path d="M0 0 C1 4 1 4 1 4 Z " fill="#F7FBFC" transform="translate(290,115)"/>
<path d="M0 0 C4 1 4 1 4 1 Z " fill="#F6FAFD" transform="translate(227,109)"/>
<path d="" fill="#E9F7F2" transform="translate(0,0)"/>
<path d="" fill="#EDF3F3" transform="translate(0,0)"/>
<path d="" fill="#E9F7F3" transform="translate(0,0)"/>
<path d="M0 0 C3 1 3 1 3 1 Z " fill="#F2F5F8" transform="translate(216,195)"/>
<path d="M0 0 C0.66 0 1.32 0 2 0 C1.67 0.66 1.34 1.32 1 2 C0.67 1.34 0.34 0.68 0 0 Z " fill="#ECF0F2" transform="translate(294,133)"/>
<path d="" fill="#F8FAFD" transform="translate(0,0)"/>
<path d="M0 0 C3 1 3 1 3 1 Z " fill="#F6FAFD" transform="translate(282,109)"/>
<path d="M0 0 C3 1 3 1 3 1 Z " fill="#F7FCFE" transform="translate(274,109)"/>
<path d="M0 0 C2 1 2 1 2 1 Z " fill="#FDFCFB" transform="translate(341,397)"/>
<path d="M0 0 C2 1 2 1 2 1 Z " fill="#F8FDF8" transform="translate(169,397)"/>
<path d="" fill="#E8F9EC" transform="translate(0,0)"/>
<path d="" fill="#F1F9F0" transform="translate(0,0)"/>
<path d="" fill="#E7F1F1" transform="translate(0,0)"/>
<path d="" fill="#F9FAF6" transform="translate(0,0)"/>
<path d="" fill="#FCF9FC" transform="translate(0,0)"/>
<path d="" fill="#ECF5EC" transform="translate(0,0)"/>
<path d="" fill="#EFF4F2" transform="translate(0,0)"/>
<path d="" fill="#DDEAE8" transform="translate(0,0)"/>
<path d="" fill="#E4EEF2" transform="translate(0,0)"/>
<path d="" fill="#F2FDFF" transform="translate(0,0)"/>
<path d="M0 0 C2 1 2 1 2 1 Z " fill="#F7FBFD" transform="translate(269,109)"/>
<path d="M0 0 C2 1 2 1 2 1 Z " fill="#F7FCFC" transform="translate(263,109)"/>
<path d="M0 0 C2 1 2 1 2 1 Z " fill="#F7FCFE" transform="translate(258,109)"/>
<path d="M0 0 C2 1 2 1 2 1 Z " fill="#F7FCFE" transform="translate(255,109)"/>
<path d="M0 0 C2 1 2 1 2 1 Z " fill="#F7FBFD" transform="translate(242,109)"/>
<path d="" fill="#FFFFFF" transform="translate(0,0)"/>
<path d="" fill="#FFFFFF" transform="translate(0,0)"/>
<path d="" fill="#FFFFFF" transform="translate(0,0)"/>
<path d="" fill="#FFFFFF" transform="translate(0,0)"/>
<path d="" fill="#F2F5F3" transform="translate(0,0)"/>
<path d="" fill="#9BE1B8" transform="translate(0,0)"/>
<path d="" fill="#E8F1ED" transform="translate(0,0)"/>
<path d="" fill="#FFFFFF" transform="translate(0,0)"/>
<path d="" fill="#B0E1C6" transform="translate(0,0)"/>
<path d="" fill="#EBEDF1" transform="translate(0,0)"/>
<path d="" fill="#EBEDE8" transform="translate(0,0)"/>
<path d="" fill="#FFFFFF" transform="translate(0,0)"/>
<path d="" fill="#FFF6EC" transform="translate(0,0)"/>
<path d="" fill="#FFFCEF" transform="translate(0,0)"/>
<path d="" fill="#FFFFFE" transform="translate(0,0)"/>
<path d="" fill="#E1FACF" transform="translate(0,0)"/>
<path d="" fill="#EDF2F0" transform="translate(0,0)"/>
<path d="" fill="#F6FAFA" transform="translate(0,0)"/>
<path d="" fill="#ECF1F4" transform="translate(0,0)"/>
<path d="" fill="#D4EEE1" transform="translate(0,0)"/>
<path d="" fill="#D7E7E8" transform="translate(0,0)"/>
<path d="" fill="#D2EDDC" transform="translate(0,0)"/>
<path d="" fill="#D2EEE4" transform="translate(0,0)"/>
<path d="" fill="#DDF3E5" transform="translate(0,0)"/>
<path d="" fill="#D4EBE6" transform="translate(0,0)"/>
<path d="" fill="#FFFDF3" transform="translate(0,0)"/>
<path d="" fill="#E2F0E9" transform="translate(0,0)"/>
<path d="" fill="#FFFFFF" transform="translate(0,0)"/>
<path d="" fill="#FFFEFE" transform="translate(0,0)"/>
<path d="" fill="#FFFFFF" transform="translate(0,0)"/>
<path d="" fill="#FBFFEF" transform="translate(0,0)"/>
<path d="" fill="#FBFFF1" transform="translate(0,0)"/>
<path d="" fill="#F2F7EB" transform="translate(0,0)"/>
<path d="" fill="#FFFFFF" transform="translate(0,0)"/>
<path d="" fill="#FFFFFF" transform="translate(0,0)"/>
<path d="" fill="#FFFFFF" transform="translate(0,0)"/>
<path d="" fill="#FFFEFF" transform="translate(0,0)"/>
<path d="" fill="#DEF8F5" transform="translate(0,0)"/>
<path d="" fill="#8ED9DB" transform="translate(0,0)"/>
<path d="" fill="#F5FBF9" transform="translate(0,0)"/>
<path d="" fill="#FFFFFF" transform="translate(0,0)"/>
<path d="" fill="#FFFFFF" transform="translate(0,0)"/>
<path d="" fill="#FEFAFA" transform="translate(0,0)"/>
<path d="" fill="#FFFFFC" transform="translate(0,0)"/>
<path d="" fill="#FFFFFF" transform="translate(0,0)"/>
<path d="" fill="#F6FAF6" transform="translate(0,0)"/>
<path d="" fill="#FFFFFE" transform="translate(0,0)"/>
<path d="" fill="#FFFDFE" transform="translate(0,0)"/>
<path d="" fill="#F9FAFA" transform="translate(0,0)"/>
<path d="" fill="#E6EEEE" transform="translate(0,0)"/>
<path d="" fill="#EFF5F8" transform="translate(0,0)"/>
<path d="" fill="#FFF5F8" transform="translate(0,0)"/>
<path d="" fill="#FFF9FE" transform="translate(0,0)"/>
<path d="" fill="#EFEFF3" transform="translate(0,0)"/>
<path d="" fill="#FFFFFF" transform="translate(0,0)"/>
<path d="" fill="#FFFFFF" transform="translate(0,0)"/>
<path d="" fill="#E8F1F0" transform="translate(0,0)"/>
<path d="" fill="#F7FEF9" transform="translate(0,0)"/>
<path d="" fill="#FFFFFF" transform="translate(0,0)"/>
<path d="" fill="#FFFFFF" transform="translate(0,0)"/>
<path d="" fill="#F6F9F1" transform="translate(0,0)"/>
<path d="" fill="#EBF2EF" transform="translate(0,0)"/>
<path d="" fill="#E9F4F2" transform="translate(0,0)"/>
<path d="" fill="#FFFFFA" transform="translate(0,0)"/>
<path d="" fill="#FFFFFF" transform="translate(0,0)"/>
<path d="" fill="#FFFFFF" transform="translate(0,0)"/>
<path d="" fill="#FFF6FD" transform="translate(0,0)"/>
<path d="" fill="#E6EEEC" transform="translate(0,0)"/>
<path d="" fill="#FFFFFF" transform="translate(0,0)"/>
<path d="" fill="#FFFFFF" transform="translate(0,0)"/>
<path d="" fill="#E8EDED" transform="translate(0,0)"/>
<path d="" fill="#FFFFFD" transform="translate(0,0)"/>
<path d="" fill="#FFFDFD" transform="translate(0,0)"/>
<path d="" fill="#EAF5EC" transform="translate(0,0)"/>
<path d="" fill="#ECEFF0" transform="translate(0,0)"/>
<path d="" fill="#FFFFFF" transform="translate(0,0)"/>
<path d="" fill="#FFF8FE" transform="translate(0,0)"/>
<path d="" fill="#F9FCFB" transform="translate(0,0)"/>
<path d="" fill="#F8F7F9" transform="translate(0,0)"/>
<path d="" fill="#FFFFFF" transform="translate(0,0)"/>
<path d="" fill="#FFFFFF" transform="translate(0,0)"/>
<path d="" fill="#FFF9FB" transform="translate(0,0)"/>
<path d="" fill="#F8F5F8" transform="translate(0,0)"/>
<path d="" fill="#BCFEDD" transform="translate(0,0)"/>
<path d="" fill="#FFEAF4" transform="translate(0,0)"/>
<path d="" fill="#FFFFF0" transform="translate(0,0)"/>
<path d="" fill="#FFFFFF" transform="translate(0,0)"/>
<path d="" fill="#FFFFFF" transform="translate(0,0)"/>
<path d="" fill="#FFFFFF" transform="translate(0,0)"/>
<path d="" fill="#F3ECFF" transform="translate(0,0)"/>
<path d="" fill="#FFFFFE" transform="translate(0,0)"/>
<path d="" fill="#F7FDFC" transform="translate(0,0)"/>
<path d="" fill="#FFFFFF" transform="translate(0,0)"/>
<path d="" fill="#F0F8FD" transform="translate(0,0)"/>
<path d="" fill="#F7FAFE" transform="translate(0,0)"/>
<path d="" fill="#F7FEFF" transform="translate(0,0)"/>
<path d="" fill="#F6FBFD" transform="translate(0,0)"/>
<path d="" fill="#F7FBFC" transform="translate(0,0)"/>
<path d="" fill="#F7FCFB" transform="translate(0,0)"/>
<path d="" fill="#F7FBFD" transform="translate(0,0)"/>
<path d="" fill="#FEFFFF" transform="translate(0,0)"/>
<path d="" fill="#F1FDFA" transform="translate(0,0)"/>
<path d="" fill="#FDF7FF" transform="translate(0,0)"/>
<path d="" fill="#F7FCFE" transform="translate(0,0)"/>
<path d="" fill="#F7FBFD" transform="translate(0,0)"/>
<path d="" fill="#F7FCFC" transform="translate(0,0)"/>
<path d="" fill="#F7FCFD" transform="translate(0,0)"/>
<path d="" fill="#F7FCFE" transform="translate(0,0)"/>
<path d="" fill="#F7FBFD" transform="translate(0,0)"/>
<path d="" fill="#F7FBFD" transform="translate(0,0)"/>
<path d="" fill="#F7FCFC" transform="translate(0,0)"/>
<path d="" fill="#F5FBFE" transform="translate(0,0)"/>
</svg>
